# xmcd
#
# Track frame offsets:
#	150
#	12487
#	24487
#	34612
#	45506
#	55931
#	67593
#	81018
#	92882
#	109082
#	118794
#	128302
#	139477
#	148117
#
# Disc length: 2212 seconds
#
# Revision: 1
# Processed by: cddbd v1.5.2PL0 Copyright (c) Steve Scherf et al.
# Submitted via: audiograbber 1.83.01
#
DISCID=b608a20e
DTITLE=Red Sovine - (The Heart Rending) Little Rosa
DYEAR=1965
DGENRE=Country
TTITLE0=A Dear John Letter
TTITLE1=Why Baby Why
TTITLE2=Six Days On The Road
TTITLE3=Waltzing With Sin
TTITLE4=A Million To One
TTITLE5=Color Of The Blues
TTITLE6=Sittin' and Thinkin'
TTITLE7=Old Pipeliner
TTITLE8=Dream House For Sale
TTITLE9=King Of The Open Road
TTITLE10=Peace Of Mind
TTITLE11=I Forgot To Keep Her With Me
TTITLE12=Ruby Ann
TTITLE13=Little Rosa
EXTD=
EXTT0=
EXTT1=
EXTT2=
EXTT3=
EXTT4=
EXTT5=
EXTT6=
EXTT7=
EXTT8=
EXTT9=
EXTT10=
EXTT11=
EXTT12=
EXTT13=
PLAYORDER=
